<svg xmlns="http://www.w3.org/2000/svg" width="30" height="30" viewBox="0 0 30 30"><path d="M13.87,30H4.39A4.4,4.4,0,0,1,0,25.61V4.39A4.4,4.4,0,0,1,4.39,0H25.61A4.4,4.4,0,0,1,30,4.39V25.61A4.4,4.4,0,0,1,25.61,30H18a.3.3,0,0,1-.3-.3V19.64a.3.3,0,0,1,.3-.3h4.22l.59-3.52H18a.3.3,0,0,1-.3-.3V12.3a1.752,1.752,0,0,1,1.75-1.75h3.52V7.03h-4.4a4.4,4.4,0,0,0-4.39,4.4v4.09a.31.31,0,0,1-.31.3H10.66v3.52h3.21a.3.3,0,0,1,.31.3V29.7a.31.31,0,0,1-.31.3Zm9.59-8.91H19.45v7.15h6.16a2.633,2.633,0,0,0,2.63-2.63V4.39a2.633,2.633,0,0,0-2.63-2.63H4.39A2.633,2.633,0,0,0,1.76,4.39V25.61a2.633,2.633,0,0,0,2.63,2.63h8.03V21.09H9.21a.3.3,0,0,1-.3-.3V14.37a.3.3,0,0,1,.3-.31h3.21V11.43a6.161,6.161,0,0,1,6.15-6.16h5.85a.312.312,0,0,1,.31.31V12a.3.3,0,0,1-.31.3H19.45v1.76h5.08a.3.3,0,0,1,.23.11.322.322,0,0,1,.07.25l-1.07,6.42a.3.3,0,0,1-.3.25Z" fill="#fff" fill-rule="evenodd"/></svg>