<svg xmlns="http://www.w3.org/2000/svg" width="29" height="29" viewBox="0 0 29 29"><path d="M21.19,0H7.81A7.814,7.814,0,0,0,0,7.81V21.19A7.814,7.814,0,0,0,7.81,29H21.19A7.814,7.814,0,0,0,29,21.19V7.81A7.814,7.814,0,0,0,21.19,0Zm6.02,21.19a6.026,6.026,0,0,1-6.02,6.02H7.81a6.026,6.026,0,0,1-6.02-6.02V7.81A6.026,6.026,0,0,1,7.81,1.79H21.19a6.026,6.026,0,0,1,6.02,6.02ZM14.5,7.24a7.26,7.26,0,1,0,7.26,7.26A7.259,7.259,0,0,0,14.5,7.24Zm0,12.74c-7.21,0-7.21-10.96,0-10.96S21.71,19.98,14.5,19.98ZM22.52,4.99a1.51,1.51,0,0,0,0,3.02,1.51,1.51,0,0,0,0-3.02Z" fill="#fff" fill-rule="evenodd"/></svg>