<svg xmlns="http://www.w3.org/2000/svg" width="30" height="22.86" viewBox="0 0 30 22.86"><path d="M26.29,0H3.72A3.726,3.726,0,0,0,0,3.72V19.14a3.726,3.726,0,0,0,3.72,3.72H26.28A3.726,3.726,0,0,0,30,19.14V3.72A3.724,3.724,0,0,0,26.29,0ZM28.2,19.14a1.918,1.918,0,0,1-1.91,1.92H3.72A1.92,1.92,0,0,1,1.8,19.14V3.72A1.918,1.918,0,0,1,3.72,1.81H26.28A1.918,1.918,0,0,1,28.2,3.72Zm-9.01-8.07,7.06-6.33a.913.913,0,0,0,.07-1.28.922.922,0,0,0-1.28-.06l-9.87,8.85a.221.221,0,0,1-.31.01l-1.69-1.51-.09-.09a1.075,1.075,0,0,0-.15-.13L4.95,3.39a.9.9,0,0,0-1.2,1.35l7.14,6.38a.246.246,0,0,1,.08.17.241.241,0,0,1-.07.18L3.78,18.14A.909.909,0,0,0,4.4,19.7a.917.917,0,0,0,.61-.24l7.27-6.8a.233.233,0,0,1,.32-.01l1.82,1.63a.891.891,0,0,0,.6.22.926.926,0,0,0,.61-.23l1.87-1.68a.233.233,0,0,1,.32.01l7.22,6.86a.9.9,0,0,0,.62.25.885.885,0,0,0,.65-.28.912.912,0,0,0-.03-1.28l-7.09-6.73a.25.25,0,0,1-.08-.18.214.214,0,0,1,.08-.17Z" fill="#fff" fill-rule="evenodd"/></svg>