<svg xmlns="http://www.w3.org/2000/svg" width="29" height="29.01" viewBox="0 0 29 29.01"><path d="M0,29.01,7.6,26.6a.248.248,0,0,1,.19.01A14.169,14.169,0,1,0,.4,14.19a14.058,14.058,0,0,0,2.05,7.33.233.233,0,0,1,.02.2L0,29.01Zm7.94-4.43L3.35,26.04a.256.256,0,0,1-.24-.06.235.235,0,0,1-.06-.25l1.49-4.38a12.243,12.243,0,0,1-2.3-7.16,12.431,12.431,0,1,1,5.7,10.39Zm13.9-6.94a2.554,2.554,0,0,0-.59-.32,23.961,23.961,0,0,0-2.41-1.14c-.24-.09-.36-.15-.52.08a14,14,0,0,1-1.15,1.42.776.776,0,0,1-1.05.14,10.74,10.74,0,0,1-2.92-1.79,10.743,10.743,0,0,1-2.04-2.51.721.721,0,0,1,.2-1c.18-.19.35-.41.52-.61a2.136,2.136,0,0,0,.32-.54.4.4,0,0,0-.02-.41c-.41-.79-.76-1.8-1.11-2.64-.18-.42-.21-.44-.58-.44-.23,0-.46-.03-.69-.03a1.07,1.07,0,0,0-.77.37A3.659,3.659,0,0,0,7.84,11a6.276,6.276,0,0,0,1.41,3.51,25.544,25.544,0,0,0,1.74,2.21,11.832,11.832,0,0,0,4.25,3.06c.97.38,2.79,1.18,3.87.92a1.594,1.594,0,0,1,.3-.06,3.368,3.368,0,0,0,2.2-1.52,3.667,3.667,0,0,0,.23-1.48Z" fill="#fff" fill-rule="evenodd"/></svg>