<svg xmlns="http://www.w3.org/2000/svg" xmlns:xlink="http://www.w3.org/1999/xlink" width="250" height="266.046" viewBox="0 0 250 266.046"><defs><linearGradient id="a" x1="1" y1="1" x2="1" y2="0.2" gradientUnits="objectBoundingBox"><stop offset="0" stop-color="#2b4773"/><stop offset="0.2" stop-color="#34558b"/><stop offset="1" stop-color="#2792c4"/></linearGradient><linearGradient id="d" x1="1" y1="1" x2="1" y2="0.2" gradientUnits="objectBoundingBox"><stop offset="0" stop-color="#34558b"/><stop offset="1" stop-color="#2792c4"/></linearGradient><linearGradient id="f" x1="1" x2="0.012" y2="1" gradientUnits="objectBoundingBox"><stop offset="0" stop-color="#31b8f7"/><stop offset="0.502" stop-color="#223759"/><stop offset="1" stop-color="#31b8f7"/></linearGradient><linearGradient id="g" x1="1" y1="0.989" x2="0.011" y2="0.011" gradientUnits="objectBoundingBox"><stop offset="0" stop-color="#223759"/><stop offset="1" stop-color="#31b8f7"/></linearGradient><linearGradient id="h" x1="1.008" y1="0.964" x2="0.002" y2="0.035" gradientUnits="objectBoundingBox"><stop offset="0" stop-color="#35568c"/><stop offset="1" stop-color="#31b8f7"/></linearGradient><linearGradient id="i" x1="1" y1="0.989" x2="0.011" y2="0.011" xlink:href="#g"/><linearGradient id="j" x1="1" y1="0" x2="0" y2="0.988" xlink:href="#g"/></defs><path d="M39.3,426.7,27.577,409.668c4.257-2.882,6.747-7.926,6.747-14.28,0-9.956-6.289-16.506-15.655-16.506H0V426.7H11.135V412.223h6.55L26.659,426.7H39.3Zm199.563,0H250l-21.616-49.127h-1.31L205.459,426.7h11.135l2.816-6.682h16.638l2.816,6.682Zm-6.943-16.638h-8.384l4.192-10.087ZM156.615,426.7h11.136V407.376h18.472V426.7h11.135V378.882H186.222v18.537H167.751V378.882H156.615V426.7Zm-27.489.786a28.324,28.324,0,0,0,16.31-4.913l-3.93-9.17a19.547,19.547,0,0,1-11.79,4.127c-8.188,0-12.9-5.83-12.9-14.738,0-8.843,4.716-14.738,12.9-14.738a19.829,19.829,0,0,1,11.79,4.192l4.061-9.1a27.869,27.869,0,0,0-16.441-5.044c-14.411,0-24.17,9.891-24.17,24.694S114.716,427.484,129.126,427.484Zm-58.8,0c14.541,0,24.236-9.891,24.236-24.694S84.869,378.1,70.327,378.1s-24.236,9.891-24.236,24.694S55.786,427.484,70.327,427.484Zm0-9.956c-7.4,0-12.38-5.9-12.38-14.738s4.978-14.738,12.38-14.738,12.38,5.895,12.38,14.738S77.729,417.528,70.327,417.528Zm-59.192-28.69h4.913c4.782,0,7.074,2.162,7.074,6.682,0,4.585-2.292,6.747-7.074,6.747H11.135Z" transform="translate(0 -193.211)" fill="#f7fafc"/><path d="M16.716,524.372h2.3l-6.355-14.9h-.318l-6.355,14.9h2.3l1.271-3.059h5.879Zm-2.125-5.124H10.4l2.105-5.124Zm10.149,5.322c2.621,0,4.965-1.211,4.965-4.051,0-2.244-1.45-3.178-3.793-4.29-1.549-.754-2.741-1.191-2.741-2.622,0-1.231.894-1.847,2.3-1.847a6.99,6.99,0,0,1,3.277,1.013l.556-2.185a9.2,9.2,0,0,0-3.893-.914c-2.721,0-4.687,1.489-4.687,3.932,0,2.264,1.668,3.2,3.734,4.21,1.549.775,2.82,1.291,2.82,2.7s-1.192,1.907-2.5,1.907a8.279,8.279,0,0,1-4.052-1.211l-.715,2.006a8.881,8.881,0,0,0,4.727,1.35Zm11.618,0c2.622,0,4.965-1.211,4.965-4.051,0-2.244-1.45-3.178-3.793-4.29-1.549-.754-2.741-1.191-2.741-2.622,0-1.231.894-1.847,2.3-1.847a6.987,6.987,0,0,1,3.277,1.013l.556-2.185a9.2,9.2,0,0,0-3.893-.914c-2.721,0-4.687,1.489-4.687,3.932,0,2.264,1.668,3.2,3.733,4.21,1.549.775,2.82,1.291,2.82,2.7s-1.191,1.907-2.5,1.907a8.277,8.277,0,0,1-4.051-1.211l-.715,2.006A8.881,8.881,0,0,0,36.358,524.571Zm7.785-.2h8.54v-2.065H46.446V518h5.641v-2.045H46.446V511.94h6.137v-2.065h-8.44v14.5Zm15.352.2c2.622,0,4.965-1.211,4.965-4.051,0-2.244-1.45-3.178-3.793-4.29-1.549-.754-2.741-1.191-2.741-2.622,0-1.231.894-1.847,2.3-1.847a6.987,6.987,0,0,1,3.277,1.013l.556-2.185a9.194,9.194,0,0,0-3.893-.914c-2.721,0-4.687,1.489-4.687,3.932,0,2.264,1.668,3.2,3.734,4.21,1.549.775,2.82,1.291,2.82,2.7s-1.192,1.907-2.5,1.907a8.279,8.279,0,0,1-4.052-1.211l-.715,2.006a8.88,8.88,0,0,0,4.727,1.35Zm11.619,0c2.622,0,4.965-1.211,4.965-4.051,0-2.244-1.45-3.178-3.793-4.29-1.549-.754-2.741-1.191-2.741-2.622,0-1.231.894-1.847,2.3-1.847a6.99,6.99,0,0,1,3.277,1.013l.556-2.185a9.2,9.2,0,0,0-3.893-.914c-2.721,0-4.687,1.489-4.687,3.932,0,2.264,1.668,3.2,3.734,4.21,1.549.775,2.82,1.291,2.82,2.7s-1.192,1.907-2.5,1.907a8.281,8.281,0,0,1-4.052-1.211l-.715,2.006A8.881,8.881,0,0,0,71.113,524.571Zm14.617,0c4.37,0,7.269-2.979,7.269-7.447s-2.9-7.448-7.269-7.448-7.269,2.979-7.269,7.448S81.361,524.571,85.73,524.571Zm0-2.045c-2.9,0-4.826-2.165-4.826-5.4s1.926-5.4,4.826-5.4,4.826,2.164,4.826,5.4S88.63,522.525,85.73,522.525Zm21.032,1.847-3.5-5.4a4.633,4.633,0,0,0,2.363-4.29,4.56,4.56,0,0,0-4.826-4.806H95.9v14.5h2.3v-4.846h2.979l2.939,4.846h2.641Zm-8.56-6.912V511.94h2.046c1.946,0,3.059,1.013,3.059,2.761s-1.073,2.76-2.979,2.76Zm10.526,6.912h2.3v-14.5h-2.3Zm14.915,0h2.3l-6.355-14.9h-.318l-6.355,14.9h2.3l1.271-3.059h5.879l1.271,3.059Zm-2.125-5.124h-4.191l2.105-5.124Zm10.447,5.124h2.3v-14.5h-2.3Zm19.761,0-.874-14.776h-.2l-6.2,9.275-6.177-9.275h-.2l-.874,14.776h2.3l.576-8.441,4.27,6.554h.2l4.29-6.594.576,8.48h2.3Zm9.79.2c4.37,0,7.269-2.979,7.269-7.447s-2.9-7.448-7.269-7.448-7.269,2.979-7.269,7.448S157.149,524.571,161.517,524.571Zm0-2.045c-2.9,0-4.826-2.165-4.826-5.4s1.927-5.4,4.826-5.4,4.826,2.164,4.826,5.4S164.417,522.525,161.517,522.525Zm18.073-5.68a3.532,3.532,0,0,0,1.788-3.039c0-2.423-1.688-3.932-4.19-3.932h-5.5v14.5h5.938a4.007,4.007,0,0,0,4.35-4.111,3.7,3.7,0,0,0-2.383-3.416Zm-5.6-4.905h2.84a2.091,2.091,0,0,1,2.264,2.165,2.059,2.059,0,0,1-2.185,2.165H173.99v-4.33Zm3.039,10.367H173.99v-4.449h3.039a2.244,2.244,0,1,1,0,4.449Zm7.448,2.065h2.3v-14.5h-2.3Zm7.944-2.065V509.874h-2.3v14.5h8.659v-2.065Zm8.56,2.065h2.3v-14.5h-2.3ZM214.823,506.9l-.854-1.688-3.734,2.661.517.954,4.071-1.926Zm1.072,17.477h2.3l-6.355-14.9h-.317l-6.355,14.9h2.3l1.271-3.059h5.879Zm-2.125-5.124h-4.19l2.1-5.124Zm17.179,5.124-3.5-5.4a4.633,4.633,0,0,0,2.363-4.29,4.56,4.56,0,0,0-4.826-4.806h-4.905v14.5h2.3v-4.846h2.979l2.939,4.846h2.641Zm-8.56-6.912V511.94h2.045c1.946,0,3.059,1.013,3.059,2.761s-1.073,2.76-2.979,2.76Zm10.526,6.912h2.3v-14.5h-2.3Zm14.915,0h2.3l-6.355-14.9h-.317l-6.355,14.9h2.3l1.271-3.059h5.878Zm-2.125-5.124h-4.19l2.1-5.124Z" transform="translate(-3.066 -258.525)" fill="#e2e8f0"/><g transform="translate(41.795)"><path d="M127.2,72.059,168.68,48.11l41.48,23.949-41.6,24.019.093.054-.093,47.986,41.6,24.019,41.6-24.019-41.579-24.033,41.579-24.006V48.039L168.8.142V0l-.123.071L168.557,0V.142L85.6,48.039v96.078l41.6,24.019Z" transform="translate(-85.596)" fill="#34558b" fill-rule="evenodd"/><path d="M85.6,48.039l41.6,24.019,41.6-24.019V0Z" transform="translate(-85.596)" fill-rule="evenodd" fill="url(#a)"/><path d="M338.706,98.385,255.5,146.424l41.6,24.02,41.6-24.02Z" transform="translate(-172.539 -50.346)" fill-rule="evenodd" fill="url(#a)"/><path d="M255.5,0V48.039l41.6,24.019,41.6-24.019Z" transform="translate(-172.539)" fill-rule="evenodd" fill="url(#a)"/><path d="M85.6,194.463l41.6,24.019V122.4L85.6,98.385Z" transform="translate(-85.596 -50.346)" fill-rule="evenodd" fill="url(#d)"/><path d="M255.5,244.808l41.6,24.019,41.6-24.019-83.113-48.039Z" transform="translate(-172.539 -100.691)" fill-rule="evenodd" fill="url(#d)"/><path d="M168.8,1.127,86.573,48.6l-.977-.563L168.8,0Z" transform="translate(-85.596)" fill-rule="evenodd" fill="url(#f)"/><path d="M255.5,1.128,337.73,48.6l.977-.564L255.5,0Z" transform="translate(-172.539)" fill-rule="evenodd" fill="url(#g)"/><path d="M85.6,99.512l41.6,24.02V122.4L85.6,98.385Z" transform="translate(-85.596 -50.346)" fill-rule="evenodd" fill="url(#h)"/><path d="M255.686,197.952l82.161,47.436.954-.551-39.924-23.076-43.189-24.936Z" transform="translate(-172.635 -100.72)" fill-rule="evenodd" fill="url(#i)"/><path d="M255.5,146.424l83.206-48.039v1.127l-82.23,47.475Z" transform="translate(-172.539 -50.346)" fill-rule="evenodd" fill="url(#j)"/></g></svg>